<svg width="20" height="20" viewBox="0 0 20 20" fill="none" xmlns="http://www.w3.org/2000/svg">
<path d="M14.3653 19H9.69835C8.68478 19 7.86254 18.1217 7.86254 17.039V5.83467C7.86254 4.75201 8.68478 3.87371 9.69835 3.87371H14.3653C15.3788 3.87371 16.2011 4.75201 16.2011 5.83467V17.039C16.2011 18.1217 15.3788 19 14.3653 19ZM6.89519 5.83467C6.89519 4.1837 8.15274 2.84041 9.69835 2.84041H11.3192C11.1913 1.80253 10.3615 1 9.35548 1H4.98306C3.88781 1 3 1.94834 3 3.11825V14.008C3 15.178 3.88781 16.1263 4.98306 16.1263H6.89519V5.83467Z" fill="#F5FF97"/>
</svg>
