<svg width="20" height="20" viewBox="0 0 20 20" fill="none" xmlns="http://www.w3.org/2000/svg">
<path d="M8.13381 11.9723C7.65464 11.4939 7.36298 10.8439 7.36298 10.1148C7.36298 8.65394 8.53964 7.47644 9.99964 7.47644C10.7221 7.47644 11.3871 7.76894 11.858 8.24727" stroke="#7F7F87" stroke-width="1.25" stroke-linecap="round" stroke-linejoin="round"/>
<path d="M12.5873 10.5825C12.394 11.6575 11.5473 12.5059 10.4731 12.7009" stroke="#7F7F87" stroke-width="1.25" stroke-linecap="round" stroke-linejoin="round"/>
<path d="M5.54549 14.5602C4.22299 13.5219 3.10299 12.0052 2.29132 10.1144C3.11132 8.21523 4.23882 6.69023 5.56965 5.64356C6.89215 4.5969 8.41799 4.02856 9.99965 4.02856C11.5905 4.02856 13.1155 4.60523 14.4463 5.6594" stroke="#7F7F87" stroke-width="1.25" stroke-linecap="round" stroke-linejoin="round"/>
<path d="M16.2063 7.49231C16.7796 8.25398 17.2838 9.13314 17.708 10.114C16.0688 13.9115 13.1721 16.199 9.99965 16.199C9.28048 16.199 8.57132 16.0823 7.88965 15.8548" stroke="#7F7F87" stroke-width="1.25" stroke-linecap="round" stroke-linejoin="round"/>
<path d="M16.5725 3.54138L3.42749 16.6864" stroke="#7F7F87" stroke-width="1.25" stroke-linecap="round" stroke-linejoin="round"/>
</svg>
