<svg width="20" height="20" viewBox="0 0 20 20" fill="none" xmlns="http://www.w3.org/2000/svg">
<path d="M10.7901 3.49155L12.2709 6.49154C12.3995 6.75163 12.6474 6.93191 12.9347 6.97323L16.2446 7.45398C16.9676 7.55914 17.2558 8.4474 16.7328 8.95726L14.3375 11.2925C14.13 11.4953 14.0352 11.7864 14.084 12.0727L14.6493 15.3694C14.7723 16.0896 14.0174 16.638 13.3704 16.2981L10.4099 14.7413C10.1535 14.6061 9.84648 14.6061 9.59014 14.7413L6.62959 16.2981C5.98358 16.638 5.22772 16.0887 5.35072 15.3694L5.91598 12.0727C5.9648 11.7873 5.86997 11.4953 5.66246 11.2925L3.26716 8.95726C2.74416 8.4474 3.03242 7.55914 3.75542 7.45398L7.06527 6.97323C7.35259 6.93191 7.60048 6.75163 7.72912 6.49154L9.20986 3.49155C9.53287 2.83615 10.4671 2.83615 10.7901 3.49155Z" fill="#F5FF97"/>
</svg>
