<svg width="20" height="20" viewBox="0 0 20 20" fill="none" xmlns="http://www.w3.org/2000/svg">
<path d="M16.7973 12.6624L15.6424 11.735C15.42 11.5563 15.2909 11.2849 15.2909 10.9973V10.0027C15.2909 9.71506 15.4209 9.44374 15.6424 9.26497L16.7973 8.33757C17.0053 8.1706 17.0609 7.87387 16.9282 7.64156L15.9105 5.85753C15.7778 5.62432 15.4962 5.52541 15.2487 5.62432L13.8777 6.17241C13.6141 6.27768 13.3164 6.2559 13.0707 6.11252L12.2197 5.61524C11.974 5.47187 11.8064 5.22232 11.7651 4.93829L11.549 3.46279C11.5105 3.19691 11.2845 3 11.0191 3H8.98361C8.7182 3 8.49223 3.19691 8.45367 3.46279L8.23757 4.93829C8.19633 5.22232 8.02865 5.47187 7.78296 5.61524L6.93201 6.11252C6.68632 6.2559 6.38862 6.27858 6.125 6.17241L4.75397 5.62432C4.50649 5.52541 4.22583 5.62432 4.09222 5.85753L3.0718 7.64156C2.93909 7.87477 2.99469 8.1706 3.20272 8.33757L4.35764 9.26497C4.58002 9.44374 4.70914 9.71506 4.70914 10.0027V10.9973C4.70914 11.2849 4.57912 11.5563 4.35764 11.735L3.20272 12.6624C2.99469 12.8294 2.93909 13.1261 3.0718 13.3584L4.08953 15.1425C4.22224 15.3757 4.5038 15.4746 4.75128 15.3757L6.12231 14.8276C6.38593 14.7223 6.68363 14.7441 6.92932 14.8875L7.78027 15.3848C8.02596 15.5281 8.19364 15.7777 8.23488 16.0617L8.45098 17.5372C8.48954 17.8031 8.71551 18 8.98092 18H11.0164C11.2818 18 11.5078 17.8031 11.5463 17.5372L11.7624 16.0617C11.8037 15.7777 11.9714 15.5281 12.217 15.3848L13.068 14.8875C13.3137 14.7441 13.6114 14.7214 13.875 14.8276L15.246 15.3757C15.4935 15.4746 15.7742 15.3757 15.9078 15.1425L16.9255 13.3584C17.0582 13.1252 17.0026 12.8294 16.7946 12.6624H16.7973ZM9.99955 13.8185C8.18826 13.8185 6.72039 12.333 6.72039 10.5C6.72039 8.66697 8.18826 7.18149 9.99955 7.18149C11.8108 7.18149 13.2787 8.66697 13.2787 10.5C13.2787 12.333 11.8108 13.8185 9.99955 13.8185Z" fill="#F5FF97"/>
</svg>
