<svg width="20" height="20" viewBox="0 0 20 20" fill="none" xmlns="http://www.w3.org/2000/svg">
<path d="M14.072 12.1297C13.3647 12.0689 12.6997 12.2378 12.1439 12.5707C11.9171 12.7058 11.6305 12.6884 11.4182 12.5331L9.58263 11.1868C9.36935 11.0305 9.27864 10.7612 9.33847 10.5036C9.39348 10.2681 9.42243 10.023 9.42243 9.7711C9.42243 9.51922 9.39348 9.2741 9.33847 9.03863C9.27767 8.78096 9.36839 8.51171 9.58263 8.35537L11.4182 7.00913C11.6314 6.85279 11.9171 6.83542 12.1439 6.97149C12.6997 7.30347 13.3637 7.47332 14.072 7.41252C15.6383 7.27741 16.8929 5.9939 16.9932 4.42473C17.1168 2.48884 15.5283 0.893609 13.5972 1.00555C12.0589 1.09434 10.7803 2.29293 10.5988 3.8235C10.5525 4.21821 10.5776 4.5994 10.6635 4.9584C10.7243 5.21317 10.6191 5.47953 10.4077 5.63393L8.58091 6.97439C8.36763 7.13073 8.08197 7.1481 7.85519 7.01202C7.29932 6.68005 6.6344 6.5102 5.92702 6.571C4.36557 6.70514 3.11486 7.98094 3.00774 9.54432C2.87939 11.4204 4.36364 12.9818 6.21171 12.9818C6.81293 12.9818 7.37459 12.8158 7.85615 12.5292C8.08294 12.3941 8.36956 12.4115 8.58187 12.5669L10.4087 13.9073C10.6201 14.0627 10.7252 14.3281 10.6644 14.5828C10.5786 14.9418 10.5535 15.323 10.5998 15.7177C10.7812 17.2483 12.0599 18.4469 13.5982 18.5347C15.5293 18.6457 17.1168 17.0505 16.9932 15.1175C16.8929 13.5483 15.6393 12.2638 14.072 12.1297Z" fill="#F5FF97"/>
</svg>
